<svg width="27" height="24" viewBox="0 0 27 24" fill="none" xmlns="http://www.w3.org/2000/svg">
<path d="M7.73212 17.129C5.6565 15.819 4.014 14.115 3.08587 13.039C2.82634 12.742 2.68546 12.3766 2.68546 12.0005C2.68546 11.6244 2.82634 11.259 3.08587 10.962C4.7655 9.013 8.79525 5 13.5 5C15.6105 5 17.5837 5.807 19.2712 6.874" stroke="#C4C4C4" stroke-width="2" stroke-linecap="round" stroke-linejoin="round"/>
<path d="M15.8963 9.887C15.5838 9.60467 15.2116 9.38011 14.8011 9.22628C14.3905 9.07246 13.9498 8.99241 13.5043 8.99075C13.0588 8.98909 12.6173 9.06586 12.2053 9.21662C11.7933 9.36738 11.419 9.58916 11.1039 9.86915C10.7889 10.1491 10.5393 10.4818 10.3696 10.848C10.1999 11.2142 10.1134 11.6066 10.1152 12.0026C10.1169 12.3986 10.2069 12.7904 10.3798 13.1554C10.5528 13.5203 10.8053 13.8512 11.1229 14.129" stroke="#C4C4C4" stroke-width="2" stroke-linecap="round" stroke-linejoin="round"/>
<path d="M4.5 20L22.5 4" stroke="#C4C4C4" stroke-width="2" stroke-linecap="round" stroke-linejoin="round"/>
<path d="M11.25 18.704C11.9804 18.8972 12.738 18.9969 13.5 19C18.2048 19 22.2345 14.987 23.9141 13.038C24.1736 12.7407 24.3143 12.3751 24.3141 11.9988C24.3139 11.6226 24.1728 11.2571 23.913 10.96C23.3227 10.2755 22.6894 9.62112 22.0162 9" stroke="#C4C4C4" stroke-width="2" stroke-linecap="round" stroke-linejoin="round"/>
</svg>
