<svg width="32" height="30" viewBox="0 0 32 30" fill="none" xmlns="http://www.w3.org/2000/svg">
<g clip-path="url(#clip0_1_27)">
<path d="M31.2713 15.3375C31.2713 14.35 31.1791 13.4125 31.0211 12.5H16.1394V18.1375H24.6602C24.2782 19.9875 23.1588 21.55 21.4994 22.6125V26.3625H26.5829C29.5593 23.75 31.2713 19.9 31.2713 15.3375Z" fill="#4285F4"/>
<path d="M16.1394 30C20.4064 30 23.9753 28.65 26.5829 26.3625L21.4994 22.6125C20.0771 23.5125 18.2729 24.0625 16.1394 24.0625C12.0173 24.0625 8.52735 21.425 7.27623 17.8625H2.03471V21.725C4.62913 26.625 9.96284 30 16.1394 30Z" fill="#34A853"/>
<path d="M7.27623 17.8625C6.94699 16.9625 6.77578 16 6.77578 15C6.77578 14 6.96016 13.0375 7.27623 12.1375V8.27502H2.03471C0.954803 10.3 0.335831 12.575 0.335831 15C0.335831 17.425 0.954803 19.7 2.03471 21.725L7.27623 17.8625Z" fill="#FBBC05"/>
<path d="M16.1394 5.9375C18.4704 5.9375 20.5512 6.7 22.1974 8.1875L26.7015 3.9125C23.9753 1.4875 20.4064 0 16.1394 0C9.96284 0 4.62913 3.375 2.03471 8.275L7.27623 12.1375C8.52735 8.575 12.0173 5.9375 16.1394 5.9375Z" fill="#EA4335"/>
</g>
<defs>
<clipPath id="clip0_1_27">
<rect width="31.6071" height="30" fill="white"/>
</clipPath>
</defs>
</svg>
